<?xml version="1.0" encoding="utf-8"?>
<!-- Generator: Adobe Illustrator 22.0.0, SVG Export Plug-In . SVG Version: 6.00 Build 0)  -->
<svg version="1.1" id="Layer_1" xmlns="http://www.w3.org/2000/svg" xmlns:xlink="http://www.w3.org/1999/xlink" x="0px" y="0px"
	 viewBox="0 0 500 500" style="enable-background:new 0 0 500 500;" xml:space="preserve">
<style type="text/css">
	.st0{fill:#FDDF7F;}
	.st1{fill:#ECF4F7;}
	.st2{fill:#83E1E5;}
	.st3{fill:#1C1D21;}
	.st4{fill:#AAB1BA;}
</style>
<g>
	<path class="st1" d="M419.706,213.641L419.706,213.641c0-14.126-11.451-25.578-25.578-25.578h-21.826h-64.469H131.45
		c-28.253,0-51.156,22.903-51.156,51.156v0c0,28.253,22.903,51.156,51.156,51.156h-3.752h-21.826
		c-14.126,0-25.578,11.452-25.578,25.578v0c0,14.126,11.452,25.578,25.578,25.578c-14.126,0-25.578,11.452-25.578,25.578v0
		c0,14.126,11.452,25.578,25.578,25.578h21.826h3.752c-28.253,0-51.156,22.903-51.156,51.156v0
		c0,28.253,22.903,51.156,51.156,51.156h176.382h64.469h21.826c14.126,0,25.578-11.452,25.578-25.578v0
		c0-14.126-11.451-25.578-25.578-25.578c14.126,0,25.578-11.452,25.578-25.578v0c0-14.126-11.451-25.578-25.578-25.578h-21.826
		h-3.752c28.252,0,51.156-22.903,51.156-51.156v0c0-28.253-22.903-51.156-51.156-51.156h3.752h21.826
		c14.126,0,25.578-11.452,25.578-25.578v0c0-14.126-11.451-25.578-25.578-25.578C408.254,239.22,419.706,227.768,419.706,213.641z"
		/>
</g>
<g>
	<path class="st1" d="M223.667,69.366c-8.765-7.506-19.635-12.158-31.055-13.358c-6.947,9.603-10.763,21.226-10.798,33.155
		c9.464,1.816,18.688,5.192,27.255,10.139C212.009,88.325,217.026,78.201,223.667,69.366z"/>
</g>
<g>
	<path class="st1" d="M318.186,89.163c-0.036-11.929-3.851-23.552-10.798-33.155c-11.42,1.2-22.29,5.852-31.055,13.358
		c6.641,8.835,11.659,18.96,14.598,29.936C299.498,94.355,308.722,90.979,318.186,89.163z"/>
</g>
<g>
	<path class="st0" d="M181.204,188.063h137.593c5.702-3.515,11.097-7.726,16.042-12.671c22.986-22.986,30.545-55.538,22.726-84.838
		c-22.205-5.925-46.272-3.011-66.633,8.748C284.849,76.59,269.891,57.511,250,46c-19.891,11.511-34.848,30.59-40.931,53.302
		c-20.361-11.759-44.428-14.673-66.633-8.748c-7.819,29.301-0.26,61.852,22.726,84.838
		C170.106,180.337,175.501,184.548,181.204,188.063z"/>
</g>
<path class="st3" d="M206.357,152.972c-0.92-2.604,0.445-5.46,3.048-6.38c2.603-0.918,5.459,0.444,6.38,3.048
	c2.883,8.157,7.034,15.798,12.337,22.709c1.681,2.191,1.268,5.33-0.923,7.011c-0.908,0.696-1.979,1.034-3.041,1.034
	c-1.501,0-2.985-0.673-3.97-1.957C214.245,170.69,209.591,162.123,206.357,152.972z M211.918,133.892
	c-0.091-0.636-0.175-1.274-0.251-1.915c-0.327-2.742-2.814-4.698-5.557-4.373c-2.742,0.327-4.7,2.815-4.373,5.557
	c0.086,0.719,0.18,1.435,0.282,2.148c0.357,2.493,2.496,4.292,4.943,4.292c0.236,0,0.475-0.017,0.715-0.051
	C210.412,139.158,212.311,136.625,211.918,133.892z M161.626,178.929c-23.346-23.347-32.55-57.704-24.021-89.663
	c0.461-1.729,1.813-3.081,3.542-3.542c11.754-3.136,24.018-3.878,35.971-2.334c1.071-10.865,5.034-21.453,11.443-30.312
	c1.049-1.45,2.791-2.233,4.574-2.042c10.814,1.136,20.989,5.037,29.72,11.343c6.868-8.177,15.168-15.224,24.64-20.705
	c1.549-0.896,3.458-0.896,5.009,0c9.483,5.488,17.768,12.545,24.619,20.72c8.735-6.314,18.918-10.22,29.741-11.357
	c1.777-0.191,3.524,0.592,4.573,2.042c6.392,8.835,10.352,19.392,11.434,30.228c11.88-1.535,24.069-0.76,35.981,2.419
	c1.729,0.461,3.08,1.813,3.542,3.542c8.528,31.959-0.676,66.316-24.022,89.663c-0.976,0.976-2.256,1.464-3.535,1.464
	s-2.56-0.488-3.535-1.464c-1.953-1.953-1.953-5.119,0-7.071c20.142-20.142,28.485-49.474,22.134-77.177
	c-11.272-2.596-22.77-2.813-33.874-0.733c-0.242,0.07-0.489,0.119-0.744,0.152c-7.647,1.506-15.095,4.113-22.15,7.782
	c1.473,6.56,2.251,13.32,2.251,20.179c0,20.58-6.603,40.074-19.095,56.375c-0.984,1.285-2.47,1.959-3.973,1.959
	c-1.061,0-2.13-0.336-3.037-1.032c-2.192-1.68-2.607-4.818-0.928-7.01c11.143-14.542,17.032-31.933,17.032-50.293
	c0-28.484-14.84-55.124-38.92-70.223c-21.719,13.613-36.046,36.617-38.526,62.102c-0.268,2.748-2.702,4.764-5.461,4.492
	c-2.749-0.268-4.76-2.712-4.492-5.461c0.366-3.759,0.964-7.469,1.778-11.115c-17.306-8.954-37.651-11.536-56.735-7.173
	c-6.351,27.704,1.993,57.033,22.135,77.175c1.953,1.953,1.953,5.119,0,7.071c-0.977,0.976-2.256,1.464-3.536,1.464
	C163.882,180.393,162.603,179.905,161.626,178.929z M283.136,70.387c4.503,6.718,8.129,14.006,10.763,21.674
	c6.149-3.028,12.555-5.326,19.108-6.914c-0.696-8.411-3.468-16.655-8.017-23.777C297.071,62.653,289.631,65.731,283.136,70.387z
	 M186.986,85.221c6.579,1.576,12.984,3.865,19.079,6.846c2.634-7.687,6.267-14.979,10.777-21.695
	c-6.49-4.648-13.921-7.72-21.832-9.002C190.448,68.513,187.672,76.785,186.986,85.221z M239.383,20.833h5.833v5.833
	c0,2.761,2.239,5,5,5c2.762,0,5-2.239,5-5v-5.833h5.833c2.762,0,5-2.239,5-5s-2.238-5-5-5h-5.833V5c0-2.761-2.238-5-5-5
	c-2.761,0-5,2.239-5,5v5.833h-5.833c-2.761,0-5,2.239-5,5S236.622,20.833,239.383,20.833z M86.107,119.532h5.833v5.833
	c0,2.761,2.239,5,5,5s5-2.239,5-5v-5.833h5.833c2.761,0,5-2.239,5-5s-2.239-5-5-5h-5.833v-5.833c0-2.761-2.239-5-5-5s-5,2.239-5,5
	v5.833h-5.833c-2.761,0-5,2.239-5,5S83.346,119.532,86.107,119.532z M392.227,119.532h5.833v5.833c0,2.761,2.238,5,5,5s5-2.239,5-5
	v-5.833h5.833c2.762,0,5-2.239,5-5s-2.238-5-5-5h-5.833v-5.833c0-2.761-2.238-5-5-5s-5,2.239-5,5v5.833h-5.833c-2.762,0-5,2.239-5,5
	S389.465,119.532,392.227,119.532z M437,495c0,2.761-2.238,5-5,5h-37.872H131.45H68c-2.761,0-5-2.239-5-5s2.239-5,5-5h31.518
	c-14.623-10.148-24.223-27.048-24.223-46.156c0-19.437,9.929-36.594,24.978-46.679c-14.194-2.639-24.978-15.108-24.978-30.055
	c0-10.686,5.509-20.109,13.837-25.578c-8.328-5.469-13.837-14.892-13.837-25.578c0-14.948,10.784-27.416,24.978-30.055
	c-15.049-10.084-24.978-27.242-24.978-46.679c0-30.965,25.191-56.156,56.156-56.156h262.678c16.861,0,30.578,13.717,30.578,30.578
	c0,10.686-5.51,20.109-13.838,25.578c8.328,5.469,13.838,14.892,13.838,25.578c0,14.948-10.783,27.416-24.978,30.055
	c15.049,10.084,24.978,27.242,24.978,46.679s-9.929,36.595-24.978,46.679c14.195,2.639,24.978,15.108,24.978,30.055v0
	c0,10.686-5.51,20.109-13.838,25.578c8.328,5.469,13.838,14.892,13.838,25.578c0,7.918-3.025,15.142-7.98,20.578H432
	C434.762,490,437,492.239,437,495z M131.45,285.375h237.1h25.578c11.347,0,20.578-9.231,20.578-20.578s-9.231-20.578-20.578-20.578
	H174.079c-2.761,0-5-2.239-5-5s2.239-5,5-5h220.049c11.347,0,20.578-9.231,20.578-20.578s-9.231-20.578-20.578-20.578H131.45
	c-25.45,0-46.156,20.706-46.156,46.156C85.294,264.67,106,285.375,131.45,285.375z M131.45,387.688h237.1
	c25.45,0,46.156-20.706,46.156-46.156S394,295.375,368.55,295.375h-237.1h-25.578c-11.347,0-20.578,9.231-20.578,20.578
	s9.231,20.578,20.578,20.578h220.395c2.762,0,5,2.239,5,5s-2.238,5-5,5H105.872c-11.347,0-20.578,9.231-20.578,20.578
	s9.231,20.578,20.578,20.578H131.45z M394.128,490c11.347,0,20.578-9.231,20.578-20.578s-9.231-20.578-20.578-20.578H172.667
	c-2.761,0-5-2.239-5-5s2.239-5,5-5h221.461c11.347,0,20.578-9.231,20.578-20.578s-9.231-20.578-20.578-20.578H368.55h-237.1
	c-25.45,0-46.156,20.706-46.156,46.156C85.294,469.294,106,490,131.45,490H394.128z M454.5,490h-4.171c-2.762,0-5,2.239-5,5
	s2.238,5,5,5h4.171c2.762,0,5-2.239,5-5S457.262,490,454.5,490z M49.671,490H45.5c-2.761,0-5,2.239-5,5s2.239,5,5,5h4.171
	c2.761,0,5-2.239,5-5S52.432,490,49.671,490z M148.556,244.22H155c2.761,0,5-2.239,5-5s-2.239-5-5-5h-6.444c-2.761,0-5,2.239-5,5
	S145.794,244.22,148.556,244.22z M153.778,438.844h-5.222c-2.761,0-5,2.239-5,5s2.239,5,5,5h5.222c2.761,0,5-2.239,5-5
	S156.539,438.844,153.778,438.844z M351.444,336.532h-3.777c-2.762,0-5,2.239-5,5s2.238,5,5,5h3.777c2.762,0,5-2.239,5-5
	S354.206,336.532,351.444,336.532z"/>
</svg>
